<?xml version="1.0" encoding="UTF-8" standalone="no"?><!DOCTYPE svg PUBLIC "-//W3C//DTD SVG 1.1//EN" "http://www.w3.org/Graphics/SVG/1.1/DTD/svg11.dtd"><svg width="100%" height="100%" viewBox="0 0 32 32" version="1.1" xmlns="http://www.w3.org/2000/svg" xmlns:xlink="http://www.w3.org/1999/xlink" xml:space="preserve" xmlns:serif="http://www.serif.com/" style="fill-rule:evenodd;clip-rule:evenodd;stroke-linejoin:round;stroke-miterlimit:2;"><path d="M8.884,4.5c0,-0.387 -0.313,-0.7 -0.7,-0.7l-4.184,0c-0.716,-0 -1.403,0.284 -1.909,0.791c-0.507,0.506 -0.791,1.193 -0.791,1.909c0,4.602 0,15.898 0,20.5c-0,0.716 0.284,1.403 0.791,1.909c0.506,0.507 1.193,0.791 1.909,0.791c5.154,-0 18.846,-0 24,-0c0.716,0 1.403,-0.284 1.909,-0.791c0.507,-0.506 0.791,-1.193 0.791,-1.909c-0,-4.602 -0,-15.898 -0,-20.5c0,-0.716 -0.284,-1.403 -0.791,-1.909c-0.506,-0.507 -1.193,-0.791 -1.909,-0.791c-0,0 -4.184,0 -4.184,0c-0.387,0 -0.7,0.313 -0.7,0.7l-0,1.693c-0,0.441 -0.358,0.8 -0.8,0.8c-0.523,-0 -1.109,-0 -1.632,-0c-0.442,-0 -0.8,-0.359 -0.8,-0.8c0,-0 0,-1.693 0,-1.693c0,-0.387 -0.313,-0.7 -0.7,-0.7l-6.368,0c-0.387,0 -0.7,0.313 -0.7,0.7l-0,1.693c-0,0.441 -0.358,0.8 -0.8,0.8c-0.523,-0 -1.109,-0 -1.632,-0c-0.442,-0 -0.8,-0.359 -0.8,-0.8c0,-0 0,-1.693 0,-1.693Z" style="fill:url(#_Linear1);"/><path d="M10.011,18.374l11.989,-0c1.104,-0 2,-0.896 2,-2c0,-1.104 -0.896,-2 -2,-2c0,-0 -11.989,-0 -11.989,-0c-1.104,-0 -2,0.896 -2,2c0,1.104 0.896,2 2,2Z" style="fill:url(#_Linear2);"/><path d="M10.011,24.428l11.989,0c1.104,0 2,-0.896 2,-2c0,-1.104 -0.896,-2 -2,-2l-11.989,0c-1.104,0 -2,0.896 -2,2c0,1.104 0.896,2 2,2Z" style="fill:url(#_Linear3);"/><path d="M1.3,11.21l29.4,-0l-0,-4.71c0,-0.716 -0.284,-1.403 -0.791,-1.909c-0.506,-0.507 -1.193,-0.791 -1.909,-0.791c-0,0 -4.184,0 -4.184,0c-0.387,0 -0.7,0.313 -0.7,0.7l-0,1.693c-0,0.441 -0.358,0.8 -0.8,0.8c-0.523,-0 -1.109,-0 -1.632,-0c-0.442,-0 -0.8,-0.359 -0.8,-0.8c0,-0 0,-1.693 0,-1.693c0,-0.387 -0.313,-0.7 -0.7,-0.7l-6.368,0c-0.387,0 -0.7,0.313 -0.7,0.7l-0,1.693c-0,0.441 -0.358,0.8 -0.8,0.8c-0.523,-0 -1.109,-0 -1.632,-0c-0.442,-0 -0.8,-0.359 -0.8,-0.8c0,-0 0,-1.693 0,-1.693c0,-0.387 -0.313,-0.7 -0.7,-0.7l-4.184,0c-0.716,-0 -1.403,0.284 -1.909,0.791c-0.507,0.506 -0.791,1.193 -0.791,1.909l0,4.71Z" style="fill:url(#_Linear4);"/><path d="M24.516,6.193l-0,-2.693c-0,-1.215 -0.985,-2.2 -2.2,-2.2c-0.523,0 -1.109,0 -1.632,0c-1.215,-0 -2.2,0.985 -2.2,2.2l0,2.693c0,1.215 0.985,2.2 2.2,2.2c0.523,-0 1.109,-0 1.632,-0c1.215,-0 2.2,-0.985 2.2,-2.2Zm-11,-0l-0,-2.693c-0,-1.215 -0.985,-2.2 -2.2,-2.2c-0.523,0 -1.109,0 -1.632,0c-1.215,-0 -2.2,0.985 -2.2,2.2l0,2.693c0,1.215 0.985,2.2 2.2,2.2c0.523,-0 1.109,-0 1.632,-0c1.215,-0 2.2,-0.985 2.2,-2.2Z" style="fill:url(#_Linear5);"/><defs><linearGradient id="_Linear1" x1="0" y1="0" x2="1" y2="0" gradientUnits="userSpaceOnUse" gradientTransform="matrix(8.98941e-16,-14.6808,14.6808,8.98941e-16,15.8991,13.1808)"><stop offset="0" style="stop-color:#d9defb;stop-opacity:1"/><stop offset="1" style="stop-color:#4460ff;stop-opacity:1"/></linearGradient><linearGradient id="_Linear2" x1="0" y1="0" x2="1" y2="0" gradientUnits="userSpaceOnUse" gradientTransform="matrix(5.87663e-16,9.59727,-9.59727,5.87663e-16,16.399,16.0036)"><stop offset="0" style="stop-color:#f05558;stop-opacity:1"/><stop offset="1" style="stop-color:#d10004;stop-opacity:1"/></linearGradient><linearGradient id="_Linear3" x1="0" y1="0" x2="1" y2="0" gradientUnits="userSpaceOnUse" gradientTransform="matrix(5.7878e-16,9.4522,-9.4522,5.7878e-16,16.399,22.0478)"><stop offset="0" style="stop-color:#f45558;stop-opacity:1"/><stop offset="1" style="stop-color:#d40004;stop-opacity:1"/></linearGradient><linearGradient id="_Linear4" x1="0" y1="0" x2="1" y2="0" gradientUnits="userSpaceOnUse" gradientTransform="matrix(1.10876e-15,18.1075,-18.1075,1.10876e-15,16.5,8.39253)"><stop offset="0" style="stop-color:#2196f3;stop-opacity:1"/><stop offset="1" style="stop-color:#005faa;stop-opacity:1"/></linearGradient><linearGradient id="_Linear5" x1="0" y1="0" x2="1" y2="0" gradientUnits="userSpaceOnUse" gradientTransform="matrix(9.75323e-16,15.9282,-15.9282,9.75323e-16,10,6.5)"><stop offset="0" style="stop-color:#455a64;stop-opacity:1"/><stop offset="1" style="stop-color:#18313c;stop-opacity:1"/></linearGradient></defs></svg>