<?xml version="1.0" encoding="UTF-8" standalone="no"?><!DOCTYPE svg PUBLIC "-//W3C//DTD SVG 1.1//EN" "http://www.w3.org/Graphics/SVG/1.1/DTD/svg11.dtd"><svg width="100%" height="100%" viewBox="0 0 32 32" version="1.1" xmlns="http://www.w3.org/2000/svg" xmlns:xlink="http://www.w3.org/1999/xlink" xml:space="preserve" xmlns:serif="http://www.serif.com/" style="fill-rule:evenodd;clip-rule:evenodd;stroke-linejoin:round;stroke-miterlimit:2;"><path d="M10.335,20.348c-0.148,-0.341 -0.523,-0.522 -0.882,-0.426l-2.845,0.763c-0.201,0.053 -0.371,0.188 -0.468,0.372c-0.098,0.184 -0.115,0.4 -0.047,0.596c-0,0 1.01,2.931 1.671,4.847c0.443,1.287 1.806,2.012 3.121,1.659l0.002,-0c0.638,-0.171 1.17,-0.611 1.457,-1.206c0.287,-0.595 0.301,-1.285 0.038,-1.891l-2.047,-4.714Z" style="fill:url(#_Linear1);"/><path d="M22.932,8.602c1.313,0.404 2.405,1.484 2.796,2.943c0.391,1.459 -0.014,2.94 -0.949,3.946c-0.282,0.303 -0.265,0.778 0.038,1.06c0.304,0.282 0.779,0.265 1.06,-0.039c1.27,-1.366 1.83,-3.374 1.3,-5.355c-0.531,-1.981 -2.021,-3.441 -3.804,-3.989c-0.396,-0.121 -0.816,0.101 -0.937,0.497c-0.122,0.395 0.101,0.815 0.496,0.937Z" style="fill:url(#_Linear2);"/><path d="M23.62,5.834c2.218,0.67 4.075,2.513 4.743,5.005c0.696,2.6 -0.081,5.236 -1.817,6.921c-0.297,0.288 -0.304,0.764 -0.016,1.061c0.289,0.297 0.764,0.304 1.061,0.015c2.104,-2.042 3.065,-5.233 2.22,-8.385c-0.809,-3.02 -3.07,-5.242 -5.758,-6.053c-0.396,-0.12 -0.815,0.105 -0.935,0.501c-0.119,0.396 0.105,0.815 0.502,0.935Z" style="fill:url(#_Linear3);"/><path d="M20.05,5.956c-0.237,-0.886 -0.901,-1.596 -1.769,-1.892c-0.869,-0.295 -1.828,-0.139 -2.557,0.419c-3.303,2.523 -8.885,6.789 -8.885,6.789c-0.241,0.184 -0.348,0.496 -0.269,0.79l2.352,8.779c0.079,0.293 0.327,0.51 0.628,0.549c0,0 6.967,0.903 11.09,1.438c0.91,0.118 1.818,-0.226 2.423,-0.916c0.604,-0.691 0.824,-1.637 0.587,-2.523l-3.6,-13.433Z" style="fill:url(#_Linear4);"/><path d="M6.957,11.182l-2.881,0.772c-1.467,0.393 -2.338,1.901 -1.945,3.368c0.391,1.46 0.926,3.455 1.317,4.915c0.393,1.467 1.901,2.338 3.368,1.945l2.882,-0.773l-2.741,-10.227Z" style="fill:url(#_Linear5);"/><defs><linearGradient id="_Linear1" x1="0" y1="0" x2="1" y2="0" gradientUnits="userSpaceOnUse" gradientTransform="matrix(-1.31057,-5.61335,5.61335,-1.31057,9.31057,23.7097)"><stop offset="0" style="stop-color:#455a64;stop-opacity:1"/><stop offset="1" style="stop-color:#18313c;stop-opacity:1"/></linearGradient><linearGradient id="_Linear2" x1="0" y1="0" x2="1" y2="0" gradientUnits="userSpaceOnUse" gradientTransform="matrix(-12.3498,2.46667,-2.46667,-12.3498,27.4938,11.6644)"><stop offset="0" style="stop-color:#f15558;stop-opacity:1"/><stop offset="1" style="stop-color:#d20004;stop-opacity:1"/></linearGradient><linearGradient id="_Linear3" x1="0" y1="0" x2="1" y2="0" gradientUnits="userSpaceOnUse" gradientTransform="matrix(-12.3498,2.46667,-2.46667,-12.3498,27.4938,11.6644)"><stop offset="0" style="stop-color:#f15558;stop-opacity:1"/><stop offset="1" style="stop-color:#d20004;stop-opacity:1"/></linearGradient><linearGradient id="_Linear4" x1="0" y1="0" x2="1" y2="0" gradientUnits="userSpaceOnUse" gradientTransform="matrix(-15.5529,4.36739,-4.36739,-15.5529,11.0586,16.5283)"><stop offset="0" style="stop-color:#d9defb;stop-opacity:1"/><stop offset="1" style="stop-color:#4460ff;stop-opacity:1"/></linearGradient><linearGradient id="_Linear5" x1="0" y1="0" x2="1" y2="0" gradientUnits="userSpaceOnUse" gradientTransform="matrix(5.75165,-1.37079,1.37079,5.75165,5.8672,16.6339)"><stop offset="0" style="stop-color:#42a9df;stop-opacity:1"/><stop offset="1" style="stop-color:#0080ad;stop-opacity:1"/></linearGradient></defs></svg>